<?xml version="1.0" standalone="yes"?>
<svg xmlns="http://www.w3.org/2000/svg" width="400" height="148">
<path style="fill:#030305; stroke:none;" d="M0 0L0 148L400 148L400 0L0 0z"/>
<path style="fill:#c43f59; stroke:none;" d="M39 3C39.0009 11.5594 40.0561 13.9743 49 14L49 3L39 3z"/>
<path style="fill:#bbbab7; stroke:none;" d="M49 3L49 14L51 14L51 3L49 3z"/>
<path style="fill:#ebc736; stroke:none;" d="M60 3C60 14.7728 56.5764 24.9984 71 25L71 14L82 14L82 25L92 25L92 35L71 35L71 46L60 46L60 57L39 57L39 68C46.8659 68.0061 50.5092 69.4551 49 78L60 79L60 57L71 57L71 46L102 46L102 57L113 57L113 46L103 46L103 25L92 25L92 14L82 14L82 3L60 3z"/>
<path style="fill:#bbbab7; stroke:none;" d="M123 3L123 13L102 13L102 14L113 14L113 23L114 23L114 15L134 14L134 24L93 24L93 14L92 14L92 25L103 25L103 46L113 46L113 35L104 35L104 25L123 25L123 57L102 57L104 68L103 58L112 58L111 68L124 68L124 57L147 58C143.916 55.1963 139.364 57.2069 136.608 54.3958C128.406 46.0288 151.947 47 155 47L152.566 65.9684L134 67L134 68L165 68C165.004 74.5769 161.904 93.1608 166.028 98.2577C168.747 101.618 194.206 101.889 196.972 98.3966C200.136 94.4019 198 82.9413 198 78L209 76C201.783 77.3145 199.088 75.4429 199 68C203.906 68 218.771 70.7366 220 65C212.494 68.1797 208.1 66.4435 208 58L229 58L229 68L230 68L230 46C226.116 46 219.982 44.4191 219 49L220 49L229 47C228.979 52.9431 226.355 60.4587 220 54L219 54L219 57L198 57L198 36L211 35L211 34L208 34L208 26L219 27L219 14L230 14L230 13L217 13L218 24L209 24L210 13L187 13L187 3L186 3L186 13L178 13L178 3L176 3L176 13L166 13L166 24L156 24L156 3L154 3L155 24L146 24L146 12L142 13L142 14C148.968 20.8306 138.261 27.6312 135.643 20.8519C134.732 18.4932 135.697 15.4105 136 13L124 13L125 3L123 3z"/>
<path style="fill:#ebc736; stroke:none;" d="M124 13L135 13L135 3C126.303 3.00095 124.007 3.98405 124 13z"/>
<path style="fill:#36bfbf; stroke:none;" d="M145 3L146 4L145 3z"/>
<path style="fill:#c43f59; stroke:none;" d="M146 3L145 12L146 12L146 3z"/>
<path style="fill:#36bfbf; stroke:none;" d="M156 3C156.001 4.97369 155.875 7.02144 156.109 8.98535C157.61 21.5834 173.887 8.13612 164.682 3.60339C162.261 2.41145 158.622 3.00029 156 3z"/>
<path style="fill:#c43f59; stroke:none;" d="M178 3L178 13L186 13L186 3L178 3M208 3C208.001 16.6619 218.999 16.6619 219 3L208 3z"/>
<path style="fill:#ebc736; stroke:none;" d="M240 3L241 25L230 25L230 36L240 36L240 46L230 46L230 57L240 57L240 67C228.44 67.0013 219.002 63.978 219 78L230 78L230 100C235.255 99.9994 247.442 102.072 251 98L252 98L262 100C262 91.1073 261.059 86.6118 251 89L251 44L252 44L262 46L262 25L251 25L251 3L240 3z"/>
<path style="fill:#bbbab7; stroke:none;" d="M251 3L251 25L262 25L262 57C248.108 52.8952 251 66.439 251 76C251 80.0682 249.741 86.152 253 89C250.637 76.2196 262.363 76.2196 260 89L262 99L263 99L263 68L293 68L294.028 87.3966L303 89L327 89C327.001 84.3177 325.538 74.2401 328.042 70.3179C333.097 62.4011 336.807 73.5697 336 78L338 68L347 68L346 78L359 76C347.34 78.1238 347.34 66.8763 359 69L349 67L348 57L359 57L359 44L349 44L349 36L359 37L349 35L349 13L338 13L338 3L336 3L336 13L328 13L328 3L327 3L327 13L316 13L316 14L326 14L326 24L316 26L326 25C325.955 37.766 315.094 34.9989 305 35L305 24L294 24L294 4L293 4L293 13L263 13L261 3L262 13L252 13L251 3z"/>
<path style="fill:#ebc736; stroke:none;" d="M252 3L252 13L262 13L262 4L252 3M293 3L294 14L305 14L305 3L293 3z"/>
<path style="fill:#c43f59; stroke:none;" d="M328 3L328 13L336 13L336 3L328 3z"/>
<path style="fill:#36bfbf; stroke:none;" d="M348 3C348.001 16.5202 357.999 16.5202 358 3L348 3z"/>
<path style="fill:#bbbab7; stroke:none;" d="M358 3L357 14C359.923 11.4458 359.422 6.38774 358 3M134 6L134 12L135 12L134 6z"/>
<path style="fill:#c43f59; stroke:none;" d="M146 12L146 14L154 14L146 12z"/>
<path style="fill:#bbbab7; stroke:none;" d="M39.6667 13.3333L40.3333 13.6667L39.6667 13.3333M82 13L82 14L92 14L82 13z"/>
<path style="fill:#ebc736; stroke:none;" d="M136 13L136 14L142 14L136 13z"/>
<path style="fill:#bbbab7; stroke:none;" d="M71 14L70 37L71 37L73 35C71.311 27.7997 73.7612 25.0856 81 25L81 35L82 35L82 14L81 14L81 24C73.7612 23.9144 71.311 21.2003 73 14L71 14z"/>
<path style="fill:#c43f59; stroke:none;" d="M81 24L81 14C69.7566 14.0397 69.7566 23.9603 81 24z"/>
<path style="fill:#ebc736; stroke:none;" d="M102 14L102 24L124 24L124 15L114 15L114 23L113 23L113 14L102 14z"/>
<path style="fill:#030305; stroke:none;" d="M124 14L124 24L134 24L134 14L124 14z"/>
<path style="fill:#36bfbf; stroke:none;" d="M136.742 15.0278C131.668 19.1219 138.175 27.0959 143.397 22.9722C148.365 19.0483 141.879 10.8837 136.742 15.0278z"/>
<path style="fill:#030305; stroke:none;" d="M146 14L146 24L155 24L155 14L146 14z"/>
<path style="fill:#ebc736; stroke:none;" d="M156 15L156 24L166 24L166 14L156 15z"/>
<path style="fill:#bbbab7; stroke:none;" d="M160 14L160 15L165 15L160 14z"/>
<path style="fill:#030305; stroke:none;" d="M177 14L177 24L187 24L187 14L177 14z"/>
<path style="fill:#c43f59; stroke:none;" d="M199 14L199 24C210.243 23.9603 210.243 14.0397 199 14z"/>
<path style="fill:#030305; stroke:none;" d="M209 14L209 24L218 24L218 14L209 14z"/>
<path style="fill:#ebc736; stroke:none;" d="M219 14C219.002 27.8007 229.998 27.8007 230 14L219 14M252 24L262 24C259.438 13.2794 252.01 10.996 252 24M263 14L263 25L273 25L273 14L263 14z"/>
<path style="fill:#36bfbf; stroke:none;" d="M316 14L316 24L326 24L326 14L316 14z"/>
<path style="fill:#c43f59; stroke:none;" d="M104 15L104 23C113.514 22.8872 113.514 15.1127 104 15M167 23C184.347 22.9387 167.186 7.33676 167 23z"/>
<path style="fill:#36bfbf; stroke:none;" d="M274 15C274.063 32.7071 291.707 15.0625 274 15z"/>
<path style="fill:#ebc736; stroke:none;" d="M284 15L284 24L293 24L293 15L284 15z"/>
<path style="fill:#c43f59; stroke:none;" d="M336 23L336 15C326.486 15.1127 326.486 22.8872 336 23z"/>
<path style="fill:#bbbab7; stroke:none;" d="M102 17L102 22L103 22L102 17M39 24L39 25L50 27L51 27C60.6024 19.7723 62.789 40.0994 50 33L49 36L60 36L60 46C63.8838 46 70.0184 47.5809 71 43L70 43C59.1406 51.1739 61.0006 29.5366 61 24L39 24z"/>
<path style="fill:#ebc736; stroke:none;" d="M208 24L209 25L208 24z"/>
<path style="fill:#bbbab7; stroke:none;" d="M229 24L229 36L230 36L230 25L241 25L229 24z"/>
<path style="fill:#ebc736; stroke:none;" d="M39 25L39 36C48.4019 35.999 49.999 34.402 50 25L39 25z"/>
<path style="fill:#c43f59; stroke:none;" d="M51.7423 26.0278C46.7837 30.0364 53.2305 38.0602 58.3966 33.9722C63.3618 30.0432 56.8744 21.8789 51.7423 26.0278z"/>
<path style="fill:#030305; stroke:none;" d="M61 25L61 35L71 35L71 25L61 25z"/>
<path style="fill:#c43f59; stroke:none;" d="M81 35L81 25C69.7566 25.0397 69.7566 34.9603 81 35z"/>
<path style="fill:#030305; stroke:none;" d="M82 25L82 35L92 35L92 25L82 25M104 25L104 35L113 35L113 57L123 57L123 25L104 25z"/>
<path style="fill:#ebc736; stroke:none;" d="M124 25L124 35L135 35L135 25L124 25z"/>
<path style="fill:#030305; stroke:none;" d="M135 25L135 35L145 35L145 25L135 25z"/>
<path style="fill:#c43f59; stroke:none;" d="M157 25L157 26C165.969 26.2921 165.969 33.7079 157 34C167.063 38.1816 170.246 25.1199 157 25z"/>
<path style="fill:#030305; stroke:none;" d="M167 25L167 46L187 46L187 36L176 36L176 25L167 25M187 25L187 35L197 35L197 25L187 25M219 25L219 46L240 46L240 36L229 36L229 25L219 25M241 25L241 35L251 35L251 25L241 25M263 25L263 35L274 35L273 46L293 46L293 36C284.615 35.9935 280.875 33.9557 283 25L263 25z"/>
<path style="fill:#ebc736; stroke:none;" d="M294 35L304 35L304 26C295.763 25.8536 294.007 26.3687 294 35z"/>
<path style="fill:#c43f59; stroke:none;" d="M326 25C305.993 25.0155 325.985 45.007 326 25z"/>
<path style="fill:#030305; stroke:none;" d="M327 25L327 35L337 35L337 25L327 25z"/>
<path style="fill:#36bfbf; stroke:none;" d="M146 26L146 34L154 34L154 26L146 26z"/>
<path style="fill:#030305; stroke:none;" d="M157 26L157 34C166.514 33.8872 166.514 26.1128 157 26z"/>
<path style="fill:#c43f59; stroke:none;" d="M178 26L178 34L186 34L186 26L178 26M208 26C208 29.5105 207.013 33.1456 211 34L211 33L211 27L208 26z"/>
<path style="fill:#030305; stroke:none;" d="M217 34C216.821 18.9249 201.775 33.6307 217 34z"/>
<path style="fill:#c43f59; stroke:none;" d="M216 26L217 34L218 34C219.005 30.4735 219.229 28.0942 216 26z"/>
<path style="fill:#36bfbf; stroke:none;" d="M285 26L285 34L292 34L292 26L285 26z"/>
<path style="fill:#030305; stroke:none;" d="M318 26L318 34L325 34L325 26L318 26z"/>
<path style="fill:#bbbab7; stroke:none;" d="M218 33L216 34L216 35L218 33z"/>
<path style="fill:#36bfbf; stroke:none;" d="M211 34L211 35L216 35L211 34z"/>
<path style="fill:#c43f59; stroke:none;" d="M62.6034 36.0278C57.6382 39.9568 64.1256 48.1211 69.2577 43.9722C74.2163 39.9636 67.7695 31.9398 62.6034 36.0278z"/>
<path style="fill:#ebc736; stroke:none;" d="M135 45L145 45L145 36C136.587 34.0033 135.006 37.0742 135 45M208 35L208 46L198 46L198 57L219 57L219 35L208 35M263 35L263 46C272.402 45.999 273.999 44.402 274 35L263 35z"/>
<path style="fill:#36bfbf; stroke:none;" d="M329.318 36.0316C323.541 39.7913 330.009 48.2247 335.397 43.9722C340.081 40.2754 334.555 32.6236 329.318 36.0316z"/>
<path style="fill:#ebc736; stroke:none;" d="M124 36L124 45L134 45L134 36L124 36z"/>
<path style="fill:#030305; stroke:none;" d="M146 36L146 46L155 46L155 36L146 36z"/>
<path style="fill:#36bfbf; stroke:none;" d="M157 36L157 45C164.567 44.9783 166.972 43.8243 167 36L157 36z"/>
<path style="fill:#c43f59; stroke:none;" d="M189 36L189 44C198.514 43.8872 198.514 36.1128 189 36z"/>
<path style="fill:#030305; stroke:none;" d="M198 36L198 46L208 46L208 36L198 36z"/>
<path style="fill:#36bfbf; stroke:none;" d="M294 36C294.04 47.2434 303.96 47.2433 304 36L294 36M305 36C305.039 47.1092 314.96 47.2269 315 36L305 36z"/>
<path style="fill:#030305; stroke:none;" d="M316 36L316 46L327 46L327 36L316 36M338 36L338 46L348 46L348 36L338 36z"/>
<path style="fill:#c43f59; stroke:none;" d="M349 36L349 44L350 44L350 37L357 37L357 44L359 44C358.911 36.4774 355.92 36.0053 349 36z"/>
<path style="fill:#030305; stroke:none;" d="M350 37L350 44L357 44L357 37L350 37z"/>
<path style="fill:#bbbab7; stroke:none;" d="M251.333 44.6667L251.667 45.3333L251.333 44.6667M39 46L39 47L49 47L49 57L60 57L60 56L51 56C50.9926 46.3804 47.9922 46 39 46M71 46L71 57L60 57L60 79L61 79L61 68L71 68L71 79L72 79L71 46z"/>
<path style="fill:#030305; stroke:none;" d="M156 46L157 56L166 57L166 46L156 46M251 46L251 57L262 57L262 46L251 46z"/>
<path style="fill:#ebc736; stroke:none;" d="M273 46L273 57L283 57L283 46L273 46z"/>
<path style="fill:#030305; stroke:none;" d="M294 46L294 57C302.956 54.8747 304.994 58.615 305 67L316 67L316 57L305 57L305 46L294 46M327 46L327 57L337 57L337 46L327 46z"/>
<path style="fill:#c43f59; stroke:none;" d="M39 47C39.0273 54.7305 41.2239 56.9296 49 57L49 47L39 47z"/>
<path style="fill:#36bfbf; stroke:none;" d="M125 47L125 56C132.323 55.9741 133.974 54.3232 134 47L125 47M147 58L135 58C135.008 60.2317 134.532 63.5164 136.028 65.3966C138.201 68.1283 151.655 68.1557 153.82 65.3966C156.491 61.9938 154.988 51.3487 155 47C150.067 47 141.797 45.3985 137.318 47.6034C134.763 48.8612 134.361 53.1948 136.603 54.9722C139.459 57.2355 143.783 55.6574 147 58M167 47L167 56C174.323 55.9741 175.974 54.3232 176 47L167 47M178 47L178 56C188.823 55.9617 188.932 47.0386 178 47z"/>
<path style="fill:#c43f59; stroke:none;" d="M188 54L189 54L189 48L196 48L196 55L190 55L190 56C196.466 55.7877 196.979 52.9371 197 47C191.063 47.021 188.212 47.5336 188 54M229 47C209.713 47.0149 228.985 66.5745 229 47z"/>
<path style="fill:#36bfbf; stroke:none;" d="M263 47C263.039 57.9604 271.961 57.9604 272 47L263 47M284 47C284.039 57.9604 292.961 57.9604 293 47L284 47M315 47C295.462 47.0151 314.985 66.4421 315 47M316 47C316.01 59.3875 325.99 59.3875 326 47L316 47z"/>
<path style="fill:#c43f59; stroke:none;" d="M338 47C338.063 64.707 355.707 47.0626 338 47M349 55L358 55C357.885 45.325 349.116 45.212 349 55z"/>
<path style="fill:#030305; stroke:none;" d="M189 48L189 55L196 55L196 48L189 48z"/>
<path style="fill:#bbbab7; stroke:none;" d="M39 55L42 57L42 56L39 55M305 55L308 57L308 56L305 55z"/>
<path style="fill:#ebc736; stroke:none;" d="M124 57C124 61.1924 124.825 65.5205 121 68L122 76L114 76L115 68C104.999 66.7361 102.001 67.4253 102 78L113 78L113 89L102 89L102 100C109.203 100 116.419 99.7778 123.611 99.7778C126.416 99.7778 131.245 101.101 133.667 99.2778C137.201 96.6176 136.142 78.8875 132 78L132 77L135 76C132.592 65.0389 139.07 57.0017 124 57z"/>
<path style="fill:#36bfbf; stroke:none;" d="M178 67L186 67C185.991 55.2309 178.009 55.2309 178 67z"/>
<path style="fill:#030305; stroke:none;" d="M230 57L230 67L240 67L240 57L230 57z"/>
<path style="fill:#c43f59; stroke:none;" d="M61 58L61 67C72.9606 66.9908 73.0614 58.0093 61 58M103 58C103.026 65.3232 104.677 66.9741 112 67L112 58L103 58z"/>
<path style="fill:#ebc736; stroke:none;" d="M114 58L113 66L123 67L123 58L114 58z"/>
<path style="fill:#030305; stroke:none;" d="M157 58L157 66C166.514 65.8872 166.514 58.1128 157 58z"/>
<path style="fill:#c43f59; stroke:none;" d="M164 58L164 66C166.554 63.7681 166.554 60.2319 164 58z"/>
<path style="fill:#36bfbf; stroke:none;" d="M167 58C167.039 68.9604 175.961 68.9604 176 58L167 58z"/>
<path style="fill:#c43f59; stroke:none;" d="M208 58C208.025 64.9867 211.961 70.3327 219 65C225.971 69.882 228.976 64.7 229 58L208 58z"/>
<path style="fill:#ebc736; stroke:none;" d="M252 58L252 67L262 67L262 58L252 58z"/>
<path style="fill:#36bfbf; stroke:none;" d="M264 58L264 66C273.514 65.8872 273.514 58.1128 264 58z"/>
<path style="fill:#ebc736; stroke:none;" d="M273 58L273 67L283 67L283 58L273 58z"/>
<path style="fill:#36bfbf; stroke:none;" d="M285 58L285 66L292 66L292 58L285 58M294 58L294 66L304 66L304 58L294 58M317 58C317.039 68.9604 325.961 68.9604 326 58L317 58z"/>
<path style="fill:#c43f59; stroke:none;" d="M328 58L328 66L336 66L336 58L328 58M346 66L346 58C336.486 58.1128 336.486 65.8872 346 66M157 66L157 67L164 67L157 66z"/>
<path style="fill:#ebc736; stroke:none;" d="M61 68L61 79L71 79L71 68L61 68z"/>
<path style="fill:#c43f59; stroke:none;" d="M114 76L122 76C121.887 66.4862 114.113 66.4862 114 76z"/>
<path style="fill:#36bfbf; stroke:none;" d="M167 68C167.009 80.0741 175.965 80.0557 176 68L167 68M178 68L178 77L186 77L186 68L178 68z"/>
<path style="fill:#030305; stroke:none;" d="M187 68L187 78L177 78L177 88L187 88L187 78L197 78L197 68L187 68z"/>
<path style="fill:#c43f59; stroke:none;" d="M199 68C199.027 75.6564 201.315 77.824 209 76C215.362 83.2809 218.985 73.3858 219 68L199 68z"/>
<path style="fill:#ebc736; stroke:none;" d="M252 68L252 77L262 76L262 68L252 68z"/>
<path style="fill:#36bfbf; stroke:none;" d="M304 68C284.421 68.0151 303.985 87.5787 304 68M305 68C305.009 80.2577 314.99 80.3674 315 68L305 68M317.603 69.0278C312.658 72.9312 319.879 79.5223 324.397 75.9715C329.375 72.0579 322.24 65.3687 317.603 69.0278M328.603 69.0278C323.751 72.8672 330.176 81.0802 335.258 76.9722C340.328 72.873 333.821 64.8991 328.603 69.0278M338 68L338 78C345.973 77.9718 346.994 75.6574 347 68L338 68z"/>
<path style="fill:#c43f59; stroke:none;" d="M350.603 69.0285C345.606 72.9566 352.695 79.5317 357.397 75.821C362.323 71.933 355.039 65.5418 350.603 69.0285M51 69C51.0747 75.301 52.699 76.9253 59 77L59 69L51 69z"/>
<path style="fill:#bbbab7; stroke:none;" d="M123 69L123 78L131 78L131 77C125.053 76.5463 125.072 73.7435 123 69M134 69L134 75L135 75L134 69z"/>
<path style="fill:#030305; stroke:none;" d="M200 69L200 76L207 76L207 69L200 69M350 69L350 76L357 76L357 69L350 69z"/>
<path style="fill:#bbbab7; stroke:none;" d="M49 70L49 76L50 76L49 70M134 76L132 77L132 78L134 76M218.333 76.6667L218.667 77.3333L218.333 76.6667M102 78L102 89L113 89L113 78L112 78C111.958 89.7663 101.332 89.3753 104 78L102 78z"/>
<path style="fill:#c43f59; stroke:none;" d="M112 78C94.0406 78.0635 111.985 97.7369 112 78z"/>
<path style="fill:#bbbab7; stroke:none;" d="M229 78L229 99L230 99L229 78z"/>
<path style="fill:#c43f59; stroke:none;" d="M253.603 79.0285C249.123 82.5415 254.343 90.9339 259.397 86.9715C263.877 83.4585 258.657 75.066 253.603 79.0285z"/>
<path style="fill:#36bfbf; stroke:none;" d="M167 79L167 87L176 87L176 79L167 79M294 87L304 87L304 79C297.08 79.0053 294.089 79.4774 294 87z"/>
<path style="fill:#c43f59; stroke:none;" d="M305 79L305 87L307 87L307 79L305 79z"/>
<path style="fill:#030305; stroke:none;" d="M307 79L307 87L314 87L314 79L307 79z"/>
<path style="fill:#c43f59; stroke:none;" d="M314 79L314 87L315 87L314 79z"/>
<path style="fill:#36bfbf; stroke:none;" d="M316 79L316 87L326 87L326 79L316 79M167 90L167 98L176 98L176 90L167 90z"/>
<path style="fill:#c43f59; stroke:none;" d="M178 90L178 98L186 98L186 90L178 90M189 90L189 98C198.514 97.8872 198.514 90.1128 189 90z"/>
<path style="fill:#bbbab7; stroke:none;" d="M251 98L252 99L251 98M166 111.44C154.227 113.332 139.866 125.438 150.8 137.541C157.292 144.726 168.976 146.013 178 144.56C189.593 142.694 202.983 130.966 192.721 119.093C186.426 111.809 175.094 109.978 166 111.44M39 112L39 144L57 144L57 112L39 112M64 112L64 144L81 144L81 133C90.1281 143.482 94.417 144 108 144L108 112L90 112L90 124C82.6061 112.315 77.0167 112 64 112M115 112L115 144L133 144L133 134L144 134L142 124L142 123C146.581 122.018 145 115.884 145 112L115 112M200 112L200 144L230 144L230 132L217 132L217 112L200 112M226 112C231.746 124.789 241 128.763 241 144L258 144C258 128.613 267.472 124.948 273 112C264.797 112 253.97 109.266 250 118C243.859 109.921 235.364 112 226 112M275 112L275 124L283 124L283 144L301 144L301 124L310 124L310 112L275 112M312 112L324 127L324 128C318.809 132.186 312.049 138.203 311 145L328.896 143.683L335.039 140.198L342.015 143.683L360 144L348.048 127L357 112C350.578 112 339.536 109.588 336 116L334 116C330.019 109.51 318.764 112 312 112z"/>
<path style="fill:#030305; stroke:none;" d="M133 123L134 124L133 123M170.058 124.617C163.629 126.208 167.374 133.304 172.959 132.253C179.826 130.961 176.01 123.143 170.058 124.617z"/>
</svg>
