<?xml version="1.0" standalone="yes"?>
<svg xmlns="http://www.w3.org/2000/svg" width="512" height="512">
<path style="fill:#1a1b21; stroke:none;" d="M0 0L0 512L512 512L512 0L0 0z"/>
<path style="fill:#fcb112; stroke:none;" d="M352 164C347.77 164 340.798 162.745 337.747 166.434C335.494 169.158 336.772 172.45 338.573 175C342.639 180.756 352.363 195.883 360 195.883C367.704 195.883 378.534 181.079 382.258 175C383.86 172.385 384.856 168.069 382.397 165.603C379.387 162.586 371.906 164 368 164C368 89.8083 308.01 20.0049 231 20C198.653 19.998 167.894 25.8216 141 45.1551C134.38 49.9138 118.092 59.334 119.488 68.9962C120.497 75.9738 127.838 77.2263 133 73.8519C141.758 68.1262 149.052 60.3807 158 54.6952C175.563 43.5355 197.223 36.9492 218 36.0394C289.216 32.9207 351.992 92.6199 352 164z"/>
<path style="fill:#8a6f4f; stroke:none;" d="M96 164C96 170.87 94.828 190.281 100.738 194.972C103.66 197.291 110.49 196 114 196L150 196C149.596 178.797 133.541 184.495 128.742 171.999C126.055 165.002 127.464 153.955 134.015 149.742C140.495 145.575 146.738 147.09 149.362 138C151.957 129.012 141.553 122.183 146.093 114C157.744 93.0045 172.572 107.904 188.721 100.397C193.622 98.1187 192.629 89.1789 198.015 85.7423C201.789 83.3345 206.731 84 211 84C221.552 84 239.429 80.5805 248.995 85.3179C255.5 88.5388 254.096 98.9851 260.109 100.682C276.626 105.344 289.85 95.4913 301.258 114C306.395 122.335 295.418 128.377 297.793 137C300.64 147.332 308.076 145.314 314.945 150.514C320.617 154.808 321.377 164.56 319.347 170.999C316.767 179.186 309.88 177.881 304.043 181.742C299.269 184.899 297.474 190.604 297 196L349 196C349.375 193.011 350.247 189.893 348.997 187C346.318 180.798 326.917 165.184 344.998 164.044C347.319 163.898 349.676 164 352 164C352 91.5467 288.777 31.1056 216 36.0895C183.501 38.3151 155.857 52.5479 132 74.1698C118.412 86.4847 108.791 103.863 102.692 121C100.888 126.069 97.4996 133.534 98.4043 139C99.6037 146.247 112.364 151.543 110.979 158.956C109.804 165.246 100.563 164 96 164z"/>
<path style="fill:#fcb112; stroke:none;" d="M150 196L297 196C297.833 190.44 300.07 184.918 305.015 181.742C310.132 178.455 316.216 179.634 318.991 172.985C321.489 166.996 321.228 154.834 315.867 150.514C309.17 145.118 301.372 147.215 298.124 137C295.329 128.211 306.921 122.166 301.258 113C290.422 95.4642 276.866 104.913 261.044 100.682C253.808 98.7468 256.669 87.8762 248.995 84.8935C238.674 80.8817 222.018 84 211 84C206.525 84 200.976 83.1504 197.044 85.7423C191.692 89.2704 193.423 98.0388 187.867 100.397C171.971 107.141 157.4 93.0455 146.09 113C140.909 122.14 151.922 127.938 149.361 137C146.619 146.705 139.824 145.236 133.044 149.742C126.87 153.844 126.225 166.499 128.742 172.996C131.243 179.451 136.836 178.707 141.985 181.317C147.474 184.101 149.701 190.242 150 196M80 164C80 170.881 77.7668 190.176 83.7415 194.972C87.1001 197.669 95.8775 196 100 196L96 164C100.23 164 107.202 165.255 110.253 161.566C112.506 158.842 111.228 155.55 109.427 153C105.361 147.244 95.6373 132.117 88 132.117C80.2959 132.117 69.4659 146.922 65.7415 153C64.1396 155.614 63.1444 159.931 65.6034 162.397C68.613 165.414 76.0937 164 80 164z"/>
<path style="fill:#8a6f4f; stroke:none;" d="M223 146C213.785 158.088 214.374 169.85 223 182C234.723 173.291 234.723 154.709 223 146z"/>
<path style="fill:#1a1b21; stroke:none;" d="M350 189L349 196L356 196L350 189z"/>
<path style="fill:#d7e7f1; stroke:none;" d="M56 212L180 212C200.9 212 224.502 208.972 245 213.286C266.913 217.898 285.69 234.892 292.921 256C298.186 271.366 296 288.997 296 305L296 392C296 412.121 292.473 434.397 306.326 451C324.19 472.411 351.072 468 376 468C385.049 468 398.02 470.592 404.606 462.895C412.309 453.892 408 431.279 408 420L376 420C378.598 402.747 394.439 404 408 404L408 372C419.254 372 436.523 375.254 446.999 370.991C458.98 366.115 456.816 349.307 455.079 339C451.306 316.6 438.938 299.749 425.627 282C420.283 274.876 412.442 267.212 408.938 259C404.396 248.358 408 229.536 408 218C408 211.624 408.693 205.121 403.786 200.214C398.271 194.699 390.118 196 383 196L333 196L130 196L87 196C80.4807 196 72.2703 194.684 66 196.653C58.9483 198.867 56.1603 205.182 56 212z"/>
<path style="fill:#8a6f4f; stroke:none;" d="M56 212C56 245.983 64.5614 279.413 83.5162 308C90.7421 318.898 98.7471 328.761 108 338C111.921 341.915 118.938 346.198 119.852 352.004C124.433 381.109 120 414.499 120 444C120 454.099 116.465 472.038 124.214 479.786C132.212 487.785 151.544 484 162 484L257 484C266.919 484 284.165 487.408 291.786 479.786C296.907 474.666 296 467.634 296 461L296 420C279.433 420 262.324 421.299 246 417.996C212.315 411.18 184.241 386.551 173.079 354C168.177 339.706 168 324.911 168 310C168 294.474 166.26 277.102 169.899 262C175.934 236.952 199.208 213.556 226 213C212.879 207.494 189.3 212 175 212L56 212z"/>
<path style="fill:#fcb112; stroke:none;" d="M226 212.425C215.621 213.838 205.876 216.708 197 222.44C163.446 244.108 158.497 293.869 187.17 321.714C202.279 336.386 222.567 341.537 243 338.841C251.057 337.778 259.133 334.448 266 330.184C320.753 296.186 292.002 203.441 226 212.425z"/>
<path style="fill:#a5c1da; stroke:none;" d="M239.667 212.333L240.333 212.667L239.667 212.333M245.667 213.333L246.333 213.667L245.667 213.333M249 214L250 215L249 214M255 216L256 217L255 216M258 217L259 218L258 217M260 218L261 219L260 218M265 221L266 222L265 221M268 223L269 224L268 223M271 225L272 226L271 225M272 226L273 227L272 226M281 235L282 236L281 235M282 236L283 237L282 236M284 239L285 240L284 239M285 240L286 241L285 240M286 242L287 243L286 242M369.667 244.333L370.333 244.667L369.667 244.333z"/>
<path style="fill:#8a6f4f; stroke:none;" d="M344 276L376 276L376 244C358.063 244.782 344.782 258.063 344 276z"/>
<path style="fill:#a5c1da; stroke:none;" d="M288 245L289 246L288 245M365.667 245.333L366.333 245.667L365.667 245.333M363 246L364 247L363 246M289 247L290 248L289 247M361 247L362 248L361 247M359 248L360 249L359 248M290 249L291 250L290 249M356 250L357 251L356 250M355 251L356 252L355 251M291 252L292 253L291 252M292.333 254.667L292.667 255.333L292.333 254.667M351 255L352 256L351 255M350 256L351 257L350 256M293.333 257.667L293.667 258.333L293.333 257.667M348 259L349 260L348 259M294.333 261.667L294.667 262.333L294.333 261.667M347 261L348 262L347 261M346 263L347 264L346 263M345.333 265.667L345.667 266.333L345.333 265.667M295 266L295 269L296 269L295 266M344.333 269.667L344.667 270.333L344.333 269.667z"/>
<path style="fill:#8a6f4f; stroke:none;" d="M295 281L295 287L296 287L295 281z"/>
<path style="fill:#1a1b21; stroke:none;" d="M168 287C168 305.136 166.376 324.112 169.805 342C176.443 376.63 202.456 406.888 237 416.115C256.304 421.271 276.21 420 296 420L296 287L295 287C291.331 329.028 239.341 351.401 204 333.73C182.79 323.125 177.451 306.507 168 287z"/>
<path style="fill:#8a6f4f; stroke:none;" d="M169 289L169 292L170 292L169 289M294 289L294 292L295 292L294 289M170.333 293.667L170.667 294.333L170.333 293.667M293.333 293.667L293.667 294.333L293.333 293.667M171.333 296.667L171.667 297.333L171.333 296.667M292.333 296.667L292.667 297.333L292.333 296.667M172.333 299.667L172.667 300.333L172.333 299.667M291.333 299.667L291.667 300.333L291.333 299.667M173.333 301.667L173.667 302.333L173.333 301.667M290.333 301.667L290.667 302.333L290.333 301.667M174 304L175 305L174 304M289 304L290 305L289 304M175 306L176 307L175 306M288 306L289 307L288 306M176.333 307.667L176.667 308.333L176.333 307.667M287.333 307.667L287.667 308.333L287.333 307.667M177 309L178 310L177 309M286 309L287 310L286 309M178 311L179 312L178 311M285 311L286 312L285 311M179 312L180 313L179 312M284 312L285 313L284 312M180 314L181 315L180 314M283 314L284 315L283 314M181 315L182 316L181 315M282 315L283 316L282 315M182 316L183 317L182 316M281 316L282 317L281 316M183 317L184 318L183 317M280 317L281 318L280 317M184 318L185 319L184 318M279 318L280 319L279 318M185 320L186 321L185 320M278 320L279 321L278 320M186 321L187 322L186 321M277 321L278 322L277 321M187 322L188 323L187 322M276 322L277 323L276 322M189 323L190 324L189 323M274 323L275 324L274 323M190 324L191 325L190 324M273 324L274 325L273 324M191 325L192 326L191 325M272 325L273 326L272 325M192 326L193 327L192 326M271 326L272 327L271 326M193 327L194 328L193 327M270 327L271 328L270 327M195 328L196 329L195 328M268 328L269 329L268 328M196 329L197 330L196 329M267 329L268 330L267 329M198 330L199 331L198 330M265 330L266 331L265 330M199.667 331.333L200.333 331.667L199.667 331.333M263.667 331.333L264.333 331.667L263.667 331.333M201 332L202 333L201 332M262 332L263 333L262 332M203.667 333.333L204.333 333.667L203.667 333.333M260 333L261 334L260 333M205.667 334.333L206.333 334.667L205.667 334.333M257.667 334.333L258.333 334.667L257.667 334.333M207.667 335.333L208.333 335.667L207.667 335.333M255.667 335.333L256.333 335.667L255.667 335.333M210.667 336.333L211.333 336.667L210.667 336.333M252.667 336.333L253.333 336.667L252.667 336.333M213.667 337.333L214.333 337.667L213.667 337.333M249.667 337.333L250.333 337.667L249.667 337.333M216 338L216 339L219 339L216 338M245 338L245 339L248 339L245 338M221 339L221 340L227 340L221 339M237 339L237 340L243 340L237 339z"/>
<path style="fill:#a5c1da; stroke:none;" d="M376 420L408 420L408 404C394.48 404 377.572 402.125 376 420z"/>
</svg>
