<?xml version="1.0" standalone="yes"?>
<svg xmlns="http://www.w3.org/2000/svg" width="512" height="512">
<path style="fill:#010101; stroke:none;" d="M0 0L0 512L144 512L144 511C114.658 502.366 124 456.227 124 433C94.2061 433 60.8321 426.005 54.4645 391C52.6663 381.114 53 371.001 53 361C53 357.605 54.1337 351.584 51.9722 348.702C49.1968 345.002 41.1566 344.301 37 342.971C27.7787 340.022 20.2454 333.636 17.7608 324C15.0556 313.508 20.9435 303.871 25.8611 295C33.993 280.33 45.5287 263.707 48.5355 247C51.1229 232.624 47.6563 216.629 48.0147 202C48.4435 184.496 53.0525 166.364 59.0532 150C84.9385 79.4113 154.576 29 230 29C245.291 29 263.569 29.2355 277.995 35.0178C286.088 38.2615 283.504 47.4503 275 46.0679C254.842 42.7911 235.611 39.207 215 41.1698C148.417 47.5103 89.5358 94.4699 68.3549 158C62.4893 175.593 59.3395 194.472 59.3395 213C59.3395 225.529 62.0905 237.486 59.7392 250C56.3864 267.845 44.2698 283.965 36.2469 300C32.8399 306.81 26.9327 315 29.7029 322.985C34.6854 337.348 57.6026 330.268 63.9722 342.055C66.3871 346.523 65 354.064 65 359C65 371.914 63.3437 385.927 68.9012 398C81.7053 425.815 113.839 421 139 421C152.926 421 166.47 421.45 180 417.573C197.403 412.585 212.998 401.722 223.572 387C226.38 383.09 231.451 370.44 237.891 373.288C243.335 375.695 240.525 381.378 238.395 385C233.381 393.527 227.246 401.17 220 407.91C196.24 430.014 166.86 433 136 433L136 476C136 482.838 135.068 490.446 140.225 495.811C148.783 504.715 167.774 501 179 501L283 501C294.697 501 315.139 505.019 323.581 494.895C327.761 489.883 327 483.082 327 477L327 441C327 404.529 327.929 371.133 349.721 340C367.514 314.581 387.059 293.692 395.859 263C397.46 257.416 399.193 237.562 406.985 237.752C413.97 237.921 411.653 247.939 410.789 252C407.702 266.523 402.379 280.748 395.753 294C382.093 321.321 357.966 341.579 346.453 370C334.637 399.169 339 433.209 339 464C339 482.149 340.761 504.597 319 511L319 512L512 512L512 0L428 0C430.599 5.17047 435.547 28.7197 424.04 27.534C415.118 26.6145 419.085 5.25571 421 0L392 0C394.128 5.02264 397.86 28.5329 388.015 27.534C379.263 26.646 382.791 5.21393 385 0L356 0C358.128 5.02264 361.86 28.5329 352.015 27.534C343.263 26.646 346.791 5.21393 349 0L320 0C321.94 5.32397 325.921 26.6319 316.985 27.534C305.453 28.6981 310.382 5.20749 313 0L0 0z"/>
<path style="fill:#2cb2e3; stroke:none;" d="M313.228 1.02853C306.439 5.1311 308.667 34.2247 319.682 26.9715C325.001 23.4695 324.264 -5.63965 313.228 1.02853M349.318 1.02853C343.991 4.5361 344.96 34.0322 355.682 26.9715C361.008 23.464 360.04 -6.03223 349.318 1.02853M385.318 1.02853C379.991 4.53613 380.96 34.0321 391.682 26.9715C397.008 23.464 396.04 -6.03217 385.318 1.02853M421.434 1.02853C416.03 4.69809 416.75 33.6309 427.772 26.9715C434.591 22.8509 432.143 -6.24487 421.434 1.02853z"/>
<path style="fill:#5490e8; stroke:none;" d="M179 37C187.112 48.475 196.233 43.6208 208 42.1559C224.447 40.1086 241.629 40.0728 258 42.7538C263.753 43.696 280.513 50.6866 283.377 42.8912C286.97 33.1115 264.724 31.6672 259 30.8696C233.842 27.3642 202.743 26.4885 179 37z"/>
<path style="fill:#2cb2e3; stroke:none;" d="M194 32L195 33L194 32M276 34L277 35L276 34z"/>
<path style="fill:#7077ec; stroke:none;" d="M182 35L183 36L182 35M179 36L180 37L179 36z"/>
<path style="fill:#5490e8; stroke:none;" d="M175 37L176 38L175 37z"/>
<path style="fill:#7077ec; stroke:none;" d="M78 136C95.812 93.2519 144.766 54.7772 190 46C186.133 43.5305 181.598 38.0936 177 37.6188C169.503 36.8446 158.505 43.5089 152 46.7531C128.502 58.472 108.373 74.1764 91.159 94C81.9001 104.662 62.047 124.723 78 136z"/>
<path style="fill:#2cb2e3; stroke:none;" d="M301 42L309 52C318.712 49.8882 330.941 52 341 52L411 52C421.397 52 437.399 48.6965 442.106 61C445.31 69.3728 443 82.1106 443 91L443 157C443 170.005 438.944 186.454 453 193C456.34 180.092 455 166.241 455 153L455 86C455 73.2999 457.478 57.0233 447.895 47.044C438.364 37.119 422.475 40 410 40L339 40C326.625 40 312.892 38.2304 301 42z"/>
<path style="fill:#7077ec; stroke:none;" d="M249 41L250 42L249 41z"/>
<path style="fill:#5490e8; stroke:none;" d="M302 41L303 42L302 41z"/>
<path style="fill:#7077ec; stroke:none;" d="M299 42L300 43L299 42z"/>
<path style="fill:#5490e8; stroke:none;" d="M298 156L298 79C298 68.1198 296.441 56.2699 309 52C303.143 39.4422 292.4 43.3755 288.133 55C285.322 62.6593 287 72.9427 287 81L287 125C287 130.986 285.514 139.333 287.603 145C289.301 149.605 294.132 153.275 298 156M182 47L183 48L182 47M179 48L180 49L179 48z"/>
<path style="fill:#2cb2e3; stroke:none;" d="M290 50L291 51L290 50z"/>
<path style="fill:#5490e8; stroke:none;" d="M310 51L310 52L316 52L310 51z"/>
<path style="fill:#010101; stroke:none;" d="M306.004 52.7423C294.808 57.078 298 73.6224 298 83L298 161C298 169.779 295.197 184.446 300.854 191.811C306.727 199.457 324.384 196 333 196L405 196C413.905 196 427.709 198.599 435.985 195.142C446.441 190.773 443 172.966 443 164L443 87C443 78.596 445.766 64.1175 440.486 57.044C434.159 48.5682 417.353 52 408 52L337 52C327.992 52 314.45 49.4714 306.004 52.7423z"/>
<path style="fill:#7077ec; stroke:none;" d="M299 58L300 59L299 58z"/>
<path style="fill:#5490e8; stroke:none;" d="M249.148 65.0278C244.968 67.508 245.867 73.4335 250.109 75.2577C254.567 77.175 267.583 77.3834 271.772 74.821C275.854 72.3234 275.351 66.3852 270.941 64.6034C266.555 62.8311 253.256 62.5908 249.148 65.0278z"/>
<path style="fill:#2cb2e3; stroke:none;" d="M469.228 65.0278C465.143 67.5308 465.861 73.4301 470.109 75.2577C474.63 77.2029 487.578 77.3527 491.852 74.821C496.026 72.348 495.341 66.3806 490.941 64.6034C486.619 62.8577 473.25 62.5641 469.228 65.0278M246 72L247 73L246 72z"/>
<path style="fill:#c82df8; stroke:none;" d="M109 75L110 76L109 75z"/>
<path style="fill:#2cb2e3; stroke:none;" d="M346 86L353 96C370.081 94.1957 370.111 105.281 376.027 117C378.122 121.151 382.323 124.199 385 128C395.994 101.799 371.684 77.8582 346 86z"/>
<path style="fill:#5490e8; stroke:none;" d="M364 84L365 85L364 84z"/>
<path style="fill:#2cb2e3; stroke:none;" d="M411 152L411 100C411 95.0135 412.875 83.889 405 84.2569C396.769 84.6414 399 97.5786 399 103C399 120.643 394.77 140.567 411 152z"/>
<path style="fill:#5490e8; stroke:none;" d="M342 134L375 134L375 147C375 150.792 375.243 172.234 384.397 162.471C387.237 159.442 386 152.803 386 149C386 135.36 387.329 125.685 375 117L375 122L342 122C342 110.268 342.686 103.065 353 96C345.238 79.3687 332.493 95.7535 330.465 107C328.121 119.991 330 134.809 330 148C330 152.102 328.717 159.05 331.742 162.343C335.302 166.217 340.348 163.299 341.566 158.985C343.662 151.567 342 141.688 342 134z"/>
<path style="fill:#2cb2e3; stroke:none;" d="M342 88L343 89L342 88z"/>
<path style="fill:#c82df8; stroke:none;" d="M95 89L96 90L95 89z"/>
<path style="fill:#010101; stroke:none;" d="M342 122L375 122C375 115.268 375.565 107.791 371.348 102.043C364.018 92.0521 348.578 93.984 343.417 105.015C341.046 110.083 342 116.547 342 122z"/>
<path style="fill:#7077ec; stroke:none;" d="M334 96L335 97L334 96z"/>
<path style="fill:#c82df8; stroke:none;" d="M102 99L103 100L102 99z"/>
<path style="fill:#2cb2e3; stroke:none;" d="M347 99L348 100L347 99z"/>
<path style="fill:#5490e8; stroke:none;" d="M246 106C249.254 108.301 251.868 111.562 256.039 111.941C258.658 112.18 261.372 112.013 264 111.999C268.909 111.973 279.958 108.076 272.566 101.742C266.989 96.9645 248.124 98.4189 246 106z"/>
<path style="fill:#2cb2e3; stroke:none;" d="M470.109 100.742C465.367 102.783 465.367 109.217 470.109 111.258C474.63 113.203 487.578 113.353 491.852 110.821C496.066 108.325 495.283 102.559 490.941 100.742C486.395 98.8398 474.642 98.7918 470.109 100.742z"/>
<path style="fill:#7077ec; stroke:none;" d="M345 101L346 102L345 101z"/>
<path style="fill:#2cb2e3; stroke:none;" d="M274 103L275 104L274 103z"/>
<path style="fill:#7077ec; stroke:none;" d="M246 104L247 105L246 104M246 106L247 110L252 112L246 106z"/>
<path style="fill:#5490e8; stroke:none;" d="M246 107L246 109L248 109L246 107z"/>
<path style="fill:#7077ec; stroke:none;" d="M274 108L275 109L274 108z"/>
<path style="fill:#5490e8; stroke:none;" d="M374 109L375 110L374 109M248 110L249 111L248 110z"/>
<path style="fill:#c82df8; stroke:none;" d="M78 111L79 112L78 111z"/>
<path style="fill:#5490e8; stroke:none;" d="M250 111L251 112L250 111z"/>
<path style="fill:#c82df8; stroke:none;" d="M73 119L74 120L73 119M85 122L86 123L85 122M69 126C59.6373 150.133 50.6576 171.857 48.1698 198C46.4533 216.036 52.491 235.627 46.6443 253C41.5972 267.997 32.1431 282.047 24.7809 296C20.0895 304.891 15.2984 313.616 17.5177 324C19.5958 333.722 26.8102 340.032 36 342.971C40.5588 344.43 50.2128 345.308 52.3966 350.225C57.2972 361.257 52.2384 379.762 54.4645 392C60.8554 427.133 94.3656 433 124 433C124 452.455 116.734 490.116 132.094 504.815C143.322 515.559 161.755 512 176 512L286 512C300.372 512 319.619 515.756 330.895 504.815C340.145 495.839 339 482.76 339 471L339 422C339 413.639 337.604 404.052 340 396L330 387L329 387C326.946 413.02 327 438.846 327 465C327 474.685 329.669 488.438 321.892 495.786C312.663 504.507 294.662 501 283 501L182 501C170.035 501 150.455 504.845 141.108 495.811C135.218 490.118 136 482.515 136 475L136 433C166.749 433 195.977 430.457 220 408.829C227.835 401.776 234.538 393.278 239.557 384C241.534 380.346 243.094 374.668 237.892 372.786C230.814 370.226 226.03 382.682 222.844 387C212.277 401.322 197.031 412.148 180 417.279C165.85 421.541 151.603 421 137 421C111.757 421 81.6421 424.678 68.9012 397C63.3437 384.927 65 370.914 65 358C65 353.185 66.4466 345.442 63.9722 341.133C57.2707 329.465 33.2867 337.328 29.4228 320.999C28.0076 315.018 32.2068 309.093 34.7531 304C41.3093 290.888 48.9849 278.262 55.2184 265C63.3066 247.792 59.571 231.105 59.571 213C59.571 196.277 62.2866 180.061 66.8596 164C68.7967 157.196 78.2887 142.595 76.5571 136C75.6049 132.373 71.3565 128.881 69 126M82 127L83 128L82 127z"/>
<path style="fill:#7077ec; stroke:none;" d="M66 132L67 133L66 132z"/>
<path style="fill:#c82df8; stroke:none;" d="M78.3333 133.667L78.6667 134.333L78.3333 133.667z"/>
<path style="fill:#7077ec; stroke:none;" d="M65 134L66 135L65 134z"/>
<path style="fill:#5490e8; stroke:none;" d="M399 135C399 141.718 396.272 156.265 400.742 161.682C406.632 168.819 412.64 159.113 410.397 153C408.047 146.599 401.849 141.529 399 135z"/>
<path style="fill:#7077ec; stroke:none;" d="M64 136L65 137L64 136M250.109 136.742C245.867 138.566 244.968 144.492 249.148 146.972C253.147 149.344 267.797 149.409 271.772 146.972C275.859 144.467 274.985 138.594 270.811 136.742C266.396 134.784 254.538 134.837 250.109 136.742z"/>
<path style="fill:#2cb2e3; stroke:none;" d="M470.109 136.742C465.367 138.783 465.367 145.217 470.109 147.258C474.491 149.143 487.703 149.43 491.852 146.972C496.089 144.462 495.285 138.56 490.941 136.742C486.395 134.84 474.642 134.792 470.109 136.742z"/>
<path style="fill:#5490e8; stroke:none;" d="M273 138L274 139L273 138z"/>
<path style="fill:#7077ec; stroke:none;" d="M75 140L76 141L75 140z"/>
<path style="fill:#5490e8; stroke:none;" d="M274 144L275 145L274 144z"/>
<path style="fill:#7077ec; stroke:none;" d="M287 146C287 160.247 282.66 183.166 289.403 195.996C298.527 213.356 331.545 210.055 348 207C345.379 203.279 341.451 197.598 336.83 196.318C326.679 193.505 310.602 200.796 302.34 192.656C293.438 183.885 300.374 168.739 297.682 158C296.402 152.894 291.089 148.88 287 146z"/>
<path style="fill:#5490e8; stroke:none;" d="M469 147L470 148L469 147z"/>
<path style="fill:#2cb2e3; stroke:none;" d="M341 160L342 161L341 160M340 162L341 163L340 162z"/>
<path style="fill:#7077ec; stroke:none;" d="M332 163L333 164L332 163z"/>
<path style="fill:#2cb2e3; stroke:none;" d="M404.667 164.333L405.333 164.667L404.667 164.333z"/>
<path style="fill:#7077ec; stroke:none;" d="M248.434 174.028C245.224 176.241 245.766 181.639 249.228 183.258C253.581 185.292 268.934 185.574 272.681 182.397C275.918 179.652 274.878 174.661 270.891 173.434C266.393 172.048 252.388 171.3 248.434 174.028z"/>
<path style="fill:#2cb2e3; stroke:none;" d="M469.228 173.742C464.889 175.773 466.139 181.748 470.109 183.397C474.547 185.24 487.405 185.298 491.772 183.258C495.605 181.466 495.688 175.37 491.772 173.603C487.379 171.622 473.59 171.701 469.228 173.742z"/>
<path style="fill:#5490e8; stroke:none;" d="M466 180L467 181L466 180M443 186C436.847 198.337 425.999 196 414 196L339 196L345 207L345 208L412 208C429.913 208 442.932 209.917 453 193L443 186z"/>
<path style="fill:#2cb2e3; stroke:none;" d="M443 187L444 188L443 187z"/>
<path style="fill:#5490e8; stroke:none;" d="M453 191L454 192L453 191z"/>
<path style="fill:#2cb2e3; stroke:none;" d="M451 194L451 197L452 197L451 194z"/>
<path style="fill:#7077ec; stroke:none;" d="M452 194L453 195L452 194M313.279 221.032C306.874 224.965 308.286 253.261 318.852 247.777C325.257 244.452 324.136 214.363 313.279 221.032z"/>
<path style="fill:#5490e8; stroke:none;" d="M349 220L350 221L349 220z"/>
<path style="fill:#7077ec; stroke:none;" d="M350.148 220.747C344.226 223.3 344.371 251.004 353.942 248.149C361.061 246.026 361.141 216.007 350.148 220.747z"/>
<path style="fill:#2cb2e3; stroke:none;" d="M385 220L386 221L385 220z"/>
<path style="fill:#5490e8; stroke:none;" d="M389 249C395.082 245.587 396.97 228.297 392.972 222.318C387.157 213.621 383.007 226.723 383 231C382.996 233.617 382.746 236.406 383.148 239C383.763 242.965 386.798 245.821 389 249M422.148 221.032C415.753 224.684 417.227 254.02 427.721 247.806C434.179 243.982 432.932 214.875 422.148 221.032z"/>
<path style="fill:#7077ec; stroke:none;" d="M420 221L421 222L420 221z"/>
<path style="fill:#5490e8; stroke:none;" d="M397 258L408 265C408.97 258.401 415.227 245.599 410.972 239.434C403.072 227.987 398.116 254.488 397 258z"/>
<path style="fill:#7077ec; stroke:none;" d="M383 242L383 246L389 249L383 242z"/>
<path style="fill:#5490e8; stroke:none;" d="M383 244L384 245L383 244z"/>
<path style="fill:#2cb2e3; stroke:none;" d="M430 244L431 245L430 244z"/>
<path style="fill:#5490e8; stroke:none;" d="M384 246L385 247L384 246z"/>
<path style="fill:#7077ec; stroke:none;" d="M398 253L399 254L398 253z"/>
<path style="fill:#2cb2e3; stroke:none;" d="M410 253L411 254L410 253z"/>
<path style="fill:#7077ec; stroke:none;" d="M398 257C391.535 274.451 385.044 291.407 374.645 307C365.796 320.268 354.155 331.386 345.811 345C339.529 355.25 328.334 373.536 331 386L329 386L339 397C344.185 381.689 346.966 367.207 355.453 353C367.245 333.262 384.282 317.794 394.752 297C401.3 283.996 412.78 267.419 398 257z"/>
<path style="fill:#5490e8; stroke:none;" d="M397 259L398 260L397 259z"/>
<path style="fill:#2cb2e3; stroke:none;" d="M396 260L397 261L396 260z"/>
<path style="fill:#5490e8; stroke:none;" d="M404 273L405 274L404 273z"/>
<path style="fill:#c82df8; stroke:none;" d="M370 332L371 333L370 332M355 352L356 353L355 352M350 361L351 362L350 361M349 363L350 364L349 363M342 382L343 383L342 382M330 385L331 386L330 385M341 386L342 387L341 386z"/>
<path style="fill:#7077ec; stroke:none;" d="M339 397L340 398L339 397M338 400L339 401L338 400z"/>
</svg>
